<svg height="428pt" viewBox="-14 0 428 428.45935" width="428pt" xmlns="http://www.w3.org/2000/svg"><path d="m234.761719 232.113281c34.824219-21.097656 74.277343-53.207031 74.277343-96.078125v-120.890625s-32.972656 21.980469-43.960937 49.457031c-22.277344-25.757812-129.011719-25.578124-153.859375 0-10.988281-27.476562-33.46875-57.769531-33.46875-57.769531l-10.492188 90.605469c-56.054687 51.53125-80.601562 136.796875-41.042968 223.722656 16.363281 35.953125 45.4375 64.988282 81.410156 81.3125 98.851562 44.863282 195.621094 6.878906 242.90625-66.132812l-54.328125-104.226563zm0 0" fill="#0e65e5"/><path d="m193.917969 428.460938c-29.410157 0-59.707031-6.429688-89.117188-19.773438-37.589843-17.0625-67.707031-47.140625-84.800781-84.703125-37.125-81.578125-21.09375-171.492187 40.765625-229.824219l10.207031-88.113281c.320313-2.78125 2.308594-5.085937 5.011719-5.808594 2.710937-.738281 5.574219.273438 7.25 2.527344.847656 1.140625 18.988281 25.707031 30.75 51.039063 19.734375-12.265626 55.386719-15.960938 82.621094-15.171876 11.527343.332032 46.6875 2.40625 66.125 15.09375 13.890625-24.976562 41.242187-43.410156 42.523437-44.261718 2.09375-1.398438 4.785156-1.535156 7.003906-.339844 2.222657 1.1875 3.605469 3.5 3.605469 6.019531v120.886719c0 31.574219-19.585937 61.527344-58.292969 89.253906h38.636719c2.542969 0 4.875 1.410156 6.050781 3.671875l54.328126 104.226563c1.136718 2.179687 1.011718 4.796875-.324219 6.867187-37.046875 57.195313-97.539063 88.410157-162.34375 88.410157zm-111.480469-402.742188-8.398438 72.507812c-.183593 1.625-.953124 3.132813-2.160156 4.238282-58.976562 54.207031-74.460937 138.941406-39.449218 215.867187 15.722656 34.550781 43.429687 62.226563 78.011718 77.925781 100.792969 45.714844 190.214844 1.253907 232.171875-60.339843l-50.550781-96.980469h-57.300781c-3.0625 0-5.746094-2.039062-6.570313-4.992188-.828125-2.949218.414063-6.085937 3.035156-7.671874 47.101563-28.542969 70.984376-58.902344 70.984376-90.242188v-107.066406c-10.054688 8.410156-24.519532 22.476562-30.796876 38.167968-.886718 2.214844-2.859374 3.804688-5.207031 4.199219-2.367187.375-4.738281-.464843-6.296875-2.265625-8.050781-9.3125-33.058594-15.898437-63.703125-16.785156-36.367187-1.121094-69.300781 5.964844-80.09375 17.078125-1.613281 1.660156-3.941406 2.398437-6.21875 1.941406-2.269531-.453125-4.160156-2.019531-5.015625-4.167969-5.867187-14.671874-15.246094-30.351562-22.441406-41.414062zm0 0" fill="#0e65e5"/><path d="m309.585938 225.285156 54.597656 104.226563c16.785156-25.921875 27.359375-58.464844 29.527344-91.59375.445312-6.824219-4.957032-12.628907-11.796876-12.628907zm0 0" fill="#2a8ee6"/><path d="m364.183594 336.339844c-.105469 0-.210938 0-.3125-.007813-2.429688-.109375-4.609375-1.5-5.734375-3.652343l-54.597657-104.226563c-1.109374-2.113281-1.03125-4.660156.207032-6.699219 1.238281-2.046875 3.449218-3.292968 5.839844-3.292968h72.332031c5.125 0 10.082031 2.144531 13.59375 5.898437 3.519531 3.757813 5.351562 8.867187 5.011719 14.007813-2.230469 34.136718-13.101563 67.824218-30.609376 94.859374-1.265624 1.945313-3.425781 3.113282-5.730468 3.113282zm-43.3125-104.226563 43.699218 83.425781c12.671876-23.140624 20.519532-50.417968 22.324219-78.066406.09375-1.40625-.386719-2.753906-1.351562-3.78125-.953125-1.019531-2.238281-1.578125-3.628907-1.578125zm0 0" fill="#0e65e5"/><path d="m248.417969 225.285156c34.820312-21.097656 74.273437-53.203125 74.273437-96.078125v-120.886719s-32.96875 21.980469-43.960937 49.453126c-22.277344-25.753907-129.011719-25.574219-153.859375 0-10.988282-27.472657-43.957032-49.453126-43.957032-49.453126v82.289063c-56.058593 51.53125-80.605468 136.796875-41.046874 223.726563 16.363281 35.953124 45.441406 64.984374 81.410156 81.308593 98.851562 44.867188 195.621094 6.878907 242.90625-66.132812l-54.328125-104.222657h-61.4375zm0 0" fill="#d7e9ff"/><path d="m207.574219 421.632812c-29.414063 0-59.710938-6.425781-89.117188-19.773437-37.59375-17.058594-67.710937-47.140625-84.800781-84.699219-37.0625-81.429687-21.148438-171.167968 40.429688-229.511718v-79.328126c0-2.519531 1.386718-4.832031 3.605468-6.019531 2.207032-1.191406 4.902344-1.058593 7.007813.339844 1.28125.855469 28.8125 19.40625 42.65625 44.507813 19.679687-12.402344 55.550781-16.109376 82.898437-15.339844 11.527344.332031 46.6875 2.40625 66.125 15.09375 13.890625-24.972656 41.242188-43.40625 42.523438-44.261719 2.09375-1.398437 4.785156-1.53125 7.003906-.339844 2.21875 1.1875 3.605469 3.5 3.605469 6.019531v120.886719c0 31.574219-19.585938 61.527344-58.292969 89.253907h38.632812c2.542969 0 4.878907 1.414062 6.054688 3.671874l54.328125 104.226563c1.136719 2.179687 1.011719 4.800781-.324219 6.867187-37.039062 57.191407-97.535156 88.40625-162.335937 88.40625zm-119.835938-399.507812v68.488281c0 1.914063-.800781 3.734375-2.207031 5.027344-58.976562 54.207031-74.457031 138.9375-39.449219 215.863281 15.722657 34.554688 43.429688 62.226563 78.015625 77.925782 100.785156 45.714843 190.214844 1.246093 232.167969-60.335938l-50.550781-96.980469h-57.296875c-3.066407 0-5.75-2.039062-6.574219-4.988281-.828125-2.953125.414062-6.09375 3.035156-7.679688 47.101563-28.539062 70.984375-58.898437 70.984375-90.238281v-107.066406c-10.054687 8.40625-24.515625 22.472656-30.796875 38.164063-.882812 2.214843-2.859375 3.808593-5.207031 4.199218-2.355469.375-4.734375-.464844-6.292969-2.265625-8.054687-9.3125-33.0625-15.898437-63.703125-16.785156-36.335937-1.132813-69.300781 5.964844-80.09375 17.078125-1.613281 1.65625-3.949219 2.394531-6.222656 1.941406-2.269531-.453125-4.15625-2.019531-5.015625-4.164062-6.292969-15.742188-20.746094-29.796875-30.792969-38.183594zm0 0" fill="#0e65e5"/><path d="m240.265625 174.5c-3.769531 0-6.828125-3.054688-6.828125-6.828125 0-12.851563 10.457031-23.3125 23.3125-23.3125 3.769531 0 6.824219 3.054687 6.824219 6.828125s-3.054688 6.824219-6.824219 6.824219c-5.324219 0-9.65625 4.332031-9.65625 9.660156 0 3.773437-3.058594 6.828125-6.828125 6.828125zm0 0" fill="#0e65e5"/><path d="m168.828125 174.5c-3.769531 0-6.824219-3.054688-6.824219-6.828125 0-5.328125-4.332031-9.660156-9.65625-9.660156-3.769531 0-6.828125-3.050781-6.828125-6.824219s3.058594-6.828125 6.828125-6.828125c12.851563 0 23.308594 10.460937 23.308594 23.3125 0 3.773437-3.054688 6.828125-6.828125 6.828125zm0 0" fill="#0e65e5"/><path d="m115.3125 179.996094h22.964844c8.621094 0 16.503906 4.871094 20.363281 12.582031l41.988281 66.839844-88.65625-70.949219c-3.25-3.03125-1.101562-8.472656 3.339844-8.472656zm0 0" fill="#2a8ee6"/><path d="m200.628906 266.246094c-1.503906 0-3.015625-.492188-4.265625-1.492188l-88.65625-70.949218c-3.9375-3.652344-5.078125-8.707032-3.300781-13.210938 1.78125-4.515625 6.0625-7.429688 10.90625-7.429688h22.964844c11.277344 0 21.421875 6.269532 26.46875 16.363282l41.664062 66.257812c1.773438 2.820313 1.25 6.511719-1.238281 8.726563-1.289063 1.152343-2.914063 1.734375-4.542969 1.734375zm-79.828125-79.425782 52.582031 42.058594-20.523437-32.667968c-3.042969-6.011719-8.503906-9.390626-14.582031-9.390626zm0 0" fill="#0e65e5"/><path d="m293.785156 179.996094h-22.960937c-8.625 0-16.507813 4.871094-20.363281 12.582031l-36.175782 66.839844 82.839844-70.949219c3.25-3.03125 1.101562-8.472656-3.339844-8.472656zm0 0" fill="#2a8ee6"/><path d="m214.285156 266.246094c-1.519531 0-3.039062-.507813-4.292968-1.515625-2.558594-2.066407-3.28125-5.664063-1.710938-8.558594l36.175781-66.839844c4.941407-9.902343 15.085938-16.167969 26.363281-16.167969h22.960938c4.847656 0 9.128906 2.914063 10.90625 7.421876 1.78125 4.511718.640625 9.566406-2.902344 12.871093l-83.0625 71.148438c-1.277344 1.09375-2.855468 1.640625-4.4375 1.640625zm56.539063-79.425782c-6.078125 0-11.539063 3.378907-14.257813 8.8125l-18.75 34.648438 50.746094-43.460938zm22.960937 0h.066406zm0 0" fill="#0e65e5"/><path d="m184.152344 232.113281h46.285156c3.628906 0 5.445312 4.59375 2.878906 7.28125l-23.144531 24.253907c-1.589844 1.664062-4.164063 1.664062-5.757813 0l-23.140624-24.253907c-2.5625-2.6875-.746094-7.28125 2.878906-7.28125zm0 0" fill="#94c1ff"/><path d="m207.296875 271.726562c-.003906 0-.003906 0-.007813 0-2.929687-.007812-5.777343-1.234374-7.8125-3.375l-23.144531-24.246093c-3.09375-3.238281-3.945312-8.019531-2.167969-12.167969 1.730469-4.039062 5.652344-6.652344 9.988282-6.652344h46.289062c4.339844 0 8.257813 2.613282 9.988282 6.660156 1.773437 4.148438.921874 8.921876-2.175782 12.160157l-23.140625 24.253906c-2.039062 2.140625-4.890625 3.367187-7.816406 3.367187zm-17.019531-32.789062 17.019531 17.835938 17.015625-17.835938zm40.164062 0h.066406zm0 0" fill="#0e65e5"/><g fill="#fff"><path d="m121.3125 355.160156c-1.351562 0-2.71875-.398437-3.914062-1.242187-41.925782-29.40625-66.953126-77.492188-66.953126-128.632813 0-3.773437 3.054688-6.824218 6.824219-6.824218s6.828125 3.050781 6.828125 6.824218c0 46.691406 22.855469 90.601563 61.140625 117.460938 3.089844 2.160156 3.835938 6.417968 1.671875 9.503906-1.332031 1.894531-3.445312 2.910156-5.597656 2.910156zm0 0"/><path d="m207.457031 382.300781c-15.449219 0-30.707031-2.242187-45.347656-6.652343-3.609375-1.089844-5.652344-4.894532-4.566406-8.507813 1.089843-3.597656 4.902343-5.648437 8.507812-4.558594 13.359375 4.023438 27.289063 6.066407 41.40625 6.066407 3.769531 0 6.828125 3.050781 6.828125 6.824218 0 3.773438-3.058594 6.828125-6.828125 6.828125zm0 0"/><path d="m36.789062 191.152344c-3.769531 0-6.824218-3.054688-6.824218-6.828125v-27.304688c0-3.773437 3.054687-6.828125 6.824218-6.828125 3.769532 0 6.828126 3.054688 6.828126 6.828125v27.304688c0 3.773437-3.058594 6.828125-6.828126 6.828125zm0 0"/><path d="m50.445312 177.5h-27.308593c-3.769531 0-6.828125-3.054688-6.828125-6.828125s3.058594-6.824219 6.828125-6.824219h27.308593c3.769532 0 6.824219 3.050782 6.824219 6.824219s-3.054687 6.828125-6.824219 6.828125zm0 0"/></g></svg>